# Blender v2.92.0 OBJ File: 'pillarModified.blend'
# www.blender.org
o pillar.002_Cube.004
v -2.000000 -0.000000 2.000000
v -1.000000 2.000000 1.000000
v -2.000000 -0.000000 -2.000000
v -1.000000 2.000000 -1.000000
v 2.000000 -0.000000 2.000000
v 1.000000 2.000000 1.000000
v 2.000000 -0.000000 -2.000000
v 1.000000 2.000000 -1.000000
v -2.000000 2.000000 2.000000
v -2.000000 2.000000 -2.000000
v 2.000000 2.000000 -2.000000
v 2.000000 2.000000 2.000000
v -2.000000 -0.000000 -1.000000
v -2.000000 -0.000000 0.000000
v -2.000000 -0.000000 1.000000
v -2.000000 0.500000 2.000000
v -2.000000 1.000000 2.000000
v -2.000000 1.500000 2.000000
v -2.000000 2.000000 1.000000
v -2.000000 2.000000 0.000000
v -2.000000 2.000000 -1.000000
v -2.000000 1.500000 -2.000000
v -2.000000 1.000000 -2.000000
v -2.000000 0.500000 -2.000000
v 1.000000 -0.000000 -2.000000
v 0.000000 -0.000000 -2.000000
v -1.000000 -0.000000 -2.000000
v -1.000000 2.000000 -2.000000
v 0.000000 2.000000 -2.000000
v 1.000000 2.000000 -2.000000
v 2.000000 1.500000 -2.000000
v 2.000000 1.000000 -2.000000
v 2.000000 0.500000 -2.000000
v 2.000000 -0.000000 1.000000
v 2.000000 -0.000000 0.000000
v 2.000000 -0.000000 -1.000000
v 2.000000 2.000000 -1.000000
v 2.000000 2.000000 0.000000
v 2.000000 2.000000 1.000000
v 2.000000 1.500000 2.000000
v 2.000000 1.000000 2.000000
v 2.000000 0.500000 2.000000
v -1.000000 -0.000000 2.000000
v 0.000000 -0.000000 2.000000
v 1.000000 -0.000000 2.000000
v 1.000000 2.000000 2.000000
v 0.000000 2.000000 2.000000
v -1.000000 2.000000 2.000000
v -1.281250 2.000000 0.546875
v -1.375000 2.000000 0.000000
v -1.281250 2.000000 -0.546875
v -0.546875 2.000000 -1.281250
v 0.000000 2.000000 -1.375000
v 0.546875 2.000000 -1.281250
v 1.281250 2.000000 -0.546875
v 1.375000 2.000000 -0.000000
v 1.281250 2.000000 0.546875
v 0.546875 2.000000 1.281250
v 0.000000 2.000000 1.375000
v -0.546875 2.000000 1.281250
v -1.451389 2.000000 1.451389
v -1.222222 2.000000 1.222222
v -1.090278 2.000000 1.090278
v -1.090278 2.000000 -1.090278
v -1.222222 2.000000 -1.222222
v -1.451389 2.000000 -1.451389
v 1.090278 2.000000 -1.090278
v 1.222222 2.000000 -1.222222
v 1.451389 2.000000 -1.451389
v 1.090278 2.000000 1.090278
v 1.222222 2.000000 1.222222
v 1.451389 2.000000 1.451389
v 1.000000 4.725242 -1.000000
v 1.000000 7.299821 -1.000000
v 1.000000 9.842582 -1.000000
v 1.000000 9.783184 1.000000
v 1.000000 7.229294 1.000000
v 1.000000 4.737270 1.000000
v -1.000000 4.675480 1.000000
v -1.000000 7.213519 1.000000
v -1.000000 9.781873 1.000000
v -1.000000 10.114561 -1.000000
v -1.000000 7.476877 -1.000000
v -1.000000 4.699123 -1.000000
v -2.000000 0.500000 1.000000
v -2.000000 1.000000 1.000000
v -2.000000 1.500000 1.000000
v -2.000000 0.500000 0.000000
v -2.000000 1.000000 -0.000000
v -2.000000 1.500000 -0.000000
v -2.000000 0.500000 -1.000000
v -2.000000 1.000000 -1.000000
v -2.000000 1.500000 -1.000000
v -1.000000 0.500000 -2.000000
v -1.000000 1.000000 -2.000000
v -1.000000 1.500000 -2.000000
v 0.000000 0.500000 -2.000000
v 0.000000 1.000000 -2.000000
v 0.000000 1.500000 -2.000000
v 1.000000 0.500000 -2.000000
v 1.000000 1.000000 -2.000000
v 1.000000 1.500000 -2.000000
v 2.000000 0.500000 -1.000000
v 2.000000 1.000000 -1.000000
v 2.000000 1.500000 -1.000000
v 2.000000 0.500000 0.000000
v 2.000000 1.000000 0.000000
v 2.000000 1.500000 0.000000
v 2.000000 0.500000 1.000000
v 2.000000 1.000000 1.000000
v 2.000000 1.500000 1.000000
v 1.000000 0.500000 2.000000
v 1.000000 1.000000 2.000000
v 1.000000 1.500000 2.000000
v 0.000000 0.500000 2.000000
v -0.000000 1.000000 2.000000
v -0.000000 1.500000 2.000000
v -1.000000 0.500000 2.000000
v -1.000000 1.000000 2.000000
v -1.000000 1.500000 2.000000
v -1.000000 0.000000 -1.000000
v 0.000000 0.000000 -1.000000
v 1.000000 0.000000 -1.000000
v -1.000000 -0.000000 -0.000000
v 0.000000 0.000000 0.000000
v 1.000000 0.000000 0.000000
v -1.000000 0.000000 1.000000
v 0.000000 0.000000 1.000000
v 1.000000 0.000000 1.000000
v 1.281250 4.742913 0.546875
v 1.375000 4.735459 -0.000000
v 1.281250 4.734797 -0.546875
v 1.281250 7.282417 0.546875
v 1.375000 7.428988 -0.000000
v 1.281250 7.182765 -0.546875
v 1.281250 9.627575 0.546875
v 1.375000 9.745720 0.000000
v 1.281250 9.907438 -0.546875
v -1.393229 2.000000 0.597222
v -1.493056 2.000000 0.000000
v -1.393229 2.000000 -0.597222
v -1.536458 2.000000 0.676215
v -1.631944 2.000000 0.000000
v -1.536458 2.000000 -0.676215
v -1.738715 2.000000 0.809896
v -1.805556 2.000000 0.000000
v -1.738715 2.000000 -0.809896
v -0.597222 2.000000 -1.393229
v 0.000000 2.000000 -1.493056
v 0.597222 2.000000 -1.393229
v -0.676215 2.000000 -1.536458
v 0.000000 2.000000 -1.631944
v 0.676215 2.000000 -1.536458
v -0.809896 2.000000 -1.738715
v 0.000000 2.000000 -1.805556
v 0.809896 2.000000 -1.738715
v 1.393229 2.000000 -0.597222
v 1.493056 2.000000 0.000000
v 1.393229 2.000000 0.597222
v 1.536458 2.000000 -0.676215
v 1.631944 2.000000 0.000000
v 1.536458 2.000000 0.676215
v 1.738715 2.000000 -0.809896
v 1.805556 2.000000 0.000000
v 1.738715 2.000000 0.809896
v 0.597222 2.000000 1.393229
v 0.000000 2.000000 1.493056
v -0.597222 2.000000 1.393229
v 0.676215 2.000000 1.536458
v 0.000000 2.000000 1.631944
v -0.676215 2.000000 1.536458
v 0.809896 2.000000 1.738715
v 0.000000 2.000000 1.805556
v -0.809896 2.000000 1.738715
v -1.281250 4.738203 -0.546875
v -1.375000 4.741650 0.000000
v -1.281250 4.712104 0.546875
v -1.281250 7.464070 -0.546875
v -1.375000 7.199227 0.000000
v -1.281250 7.177057 0.546875
v -1.281250 10.167974 -0.546875
v -1.375000 9.733770 0.000000
v -1.281250 9.589292 0.546875
v -0.546875 4.695585 1.281250
v 0.000000 4.702992 1.375000
v 0.546875 4.705211 1.281250
v -0.546875 7.442426 1.281250
v 0.000000 7.238635 1.375000
v 0.546875 7.494447 1.281250
v -0.546875 9.781708 1.281250
v 0.000000 9.681339 1.375000
v 0.546875 10.117156 1.281250
v 0.546875 4.735788 -1.281250
v -0.000000 4.724829 -1.375000
v -0.546875 4.711921 -1.281250
v 0.546875 7.307906 -1.281250
v -0.000000 7.238174 -1.375000
v -0.546875 7.176614 -1.281250
v 0.546875 9.677324 -1.281250
v 0.000000 9.508402 -1.375000
v -0.546875 9.879425 -1.281250
vt 0.437500 0.062500
vt 0.500000 0.062500
vt 0.500000 0.125000
vt 0.437500 0.125000
vt 0.562500 0.062500
vt 0.562500 0.125000
vt 0.500000 0.187500
vt 0.437500 0.187500
vt 0.562500 0.187500
vt 0.375000 0.000000
vt 0.437500 0.000000
vt 0.375000 0.062500
vt 0.500000 0.000000
vt 0.562500 0.000000
vt 0.625000 0.000000
vt 0.625000 0.062500
vt 0.625000 0.125000
vt 0.625000 0.187500
vt 0.625000 0.250000
vt 0.562500 0.250000
vt 0.500000 0.250000
vt 0.437500 0.250000
vt 0.375000 0.187500
vt 0.375000 0.250000
vt 0.375000 0.125000
vt 0.437500 0.312500
vt 0.500000 0.312500
vt 0.500000 0.375000
vt 0.437500 0.375000
vt 0.562500 0.312500
vt 0.562500 0.375000
vt 0.500000 0.437500
vt 0.437500 0.437500
vt 0.562500 0.437500
vt 0.375000 0.312500
vt 0.625000 0.312500
vt 0.625000 0.375000
vt 0.625000 0.437500
vt 0.625000 0.500000
vt 0.562500 0.500000
vt 0.500000 0.500000
vt 0.437500 0.500000
vt 0.375000 0.437500
vt 0.375000 0.500000
vt 0.375000 0.375000
vt 0.437500 0.562500
vt 0.500000 0.562500
vt 0.500000 0.625000
vt 0.437500 0.625000
vt 0.562500 0.562500
vt 0.562500 0.625000
vt 0.500000 0.687500
vt 0.437500 0.687500
vt 0.562500 0.687500
vt 0.375000 0.562500
vt 0.625000 0.562500
vt 0.625000 0.625000
vt 0.625000 0.687500
vt 0.625000 0.750000
vt 0.562500 0.750000
vt 0.500000 0.750000
vt 0.437500 0.750000
vt 0.375000 0.687500
vt 0.375000 0.750000
vt 0.375000 0.625000
vt 0.437500 0.812500
vt 0.500000 0.812500
vt 0.500000 0.875000
vt 0.437500 0.875000
vt 0.562500 0.812500
vt 0.562500 0.875000
vt 0.500000 0.937500
vt 0.437500 0.937500
vt 0.562500 0.937500
vt 0.375000 0.812500
vt 0.625000 0.812500
vt 0.625000 0.875000
vt 0.625000 0.937500
vt 0.625000 1.000000
vt 0.562500 1.000000
vt 0.500000 1.000000
vt 0.437500 1.000000
vt 0.375000 0.937500
vt 0.375000 1.000000
vt 0.375000 0.875000
vt 0.187500 0.562500
vt 0.250000 0.562500
vt 0.250000 0.625000
vt 0.187500 0.625000
vt 0.312500 0.562500
vt 0.312500 0.625000
vt 0.250000 0.687500
vt 0.187500 0.687500
vt 0.312500 0.687500
vt 0.125000 0.500000
vt 0.187500 0.500000
vt 0.125000 0.562500
vt 0.250000 0.500000
vt 0.312500 0.500000
vt 0.312500 0.750000
vt 0.250000 0.750000
vt 0.187500 0.750000
vt 0.125000 0.687500
vt 0.125000 0.750000
vt 0.125000 0.625000
vt 0.696615 0.647786
vt 0.692708 0.625000
vt 0.692708 0.625000
vt 0.696615 0.647786
vt 0.696615 0.602214
vt 0.696615 0.602214
vt 0.692708 0.625000
vt 0.696615 0.647786
vt 0.696615 0.602214
vt 0.708333 0.666667
vt 0.696615 0.647786
vt 0.708333 0.666667
vt 0.692708 0.625000
vt 0.696615 0.602214
vt 0.708333 0.583333
vt 0.708333 0.583333
vt 0.708333 0.583333
vt 0.708333 0.583333
vt 0.708333 0.666667
vt 0.708333 0.666667
vt 0.816732 0.653483
vt 0.821615 0.625000
vt 0.835938 0.625000
vt 0.830078 0.659180
vt 0.816732 0.596517
vt 0.830078 0.590820
vt 0.850260 0.625000
vt 0.843424 0.664876
vt 0.843425 0.585124
vt 0.791667 0.666667
vt 0.803385 0.647786
vt 0.802083 0.677083
vt 0.807292 0.625000
vt 0.803385 0.602214
vt 0.791667 0.583333
vt 0.802083 0.572917
vt 0.812500 0.562500
vt 0.822917 0.552083
vt 0.833333 0.541667
vt 0.856771 0.579427
vt 0.864583 0.625000
vt 0.856771 0.670573
vt 0.822917 0.697917
vt 0.833333 0.708333
vt 0.812500 0.687500
vt 0.778470 0.558255
vt 0.749892 0.553277
vt 0.749132 0.538194
vt 0.784071 0.544813
vt 0.721205 0.557956
vt 0.713325 0.542426
vt 0.747287 0.522027
vt 0.789537 0.531236
vt 0.701891 0.523343
vt 0.772787 0.571615
vt 0.750000 0.567708
vt 0.727214 0.571615
vt 0.697483 0.572483
vt 0.684028 0.559028
vt 0.664497 0.539497
vt 0.686849 0.500651
vt 0.744792 0.505208
vt 0.794922 0.517578
vt 0.682943 0.596219
vt 0.678168 0.625000
vt 0.662327 0.625000
vt 0.667318 0.588433
vt 0.682943 0.653781
vt 0.667318 0.661567
vt 0.644314 0.625000
vt 0.648004 0.577230
vt 0.648004 0.672770
vt 0.697483 0.677517
vt 0.684028 0.690972
vt 0.664497 0.710504
vt 0.721205 0.692044
vt 0.749892 0.696723
vt 0.749132 0.711806
vt 0.713325 0.707574
vt 0.778470 0.691745
vt 0.784071 0.705187
vt 0.747287 0.727973
vt 0.701891 0.726657
vt 0.789537 0.718764
vt 0.727214 0.678385
vt 0.750000 0.682292
vt 0.772786 0.678385
vt 0.794922 0.732422
vt 0.744792 0.744792
vt 0.686849 0.749349
vt 0.803385 0.602214
vt 0.807292 0.625000
vt 0.807292 0.625000
vt 0.803386 0.602214
vt 0.803385 0.647787
vt 0.803386 0.647787
vt 0.807292 0.625000
vt 0.803385 0.602214
vt 0.803385 0.647786
vt 0.791667 0.583333
vt 0.791667 0.666667
vt 0.791667 0.666667
vt 0.791667 0.666667
vt 0.791667 0.583333
vt 0.791667 0.583333
vt 0.772786 0.678385
vt 0.750000 0.682292
vt 0.750000 0.682292
vt 0.772787 0.678386
vt 0.727214 0.678385
vt 0.727214 0.678385
vt 0.750000 0.682292
vt 0.772786 0.678385
vt 0.727214 0.678385
vt 0.727214 0.571615
vt 0.750000 0.567708
vt 0.750000 0.567708
vt 0.727214 0.571615
vt 0.772787 0.571615
vt 0.772787 0.571615
vt 0.750000 0.567708
vt 0.727214 0.571615
vt 0.772786 0.571615
vn -1.0000 0.0000 -0.0000
vn 0.0000 0.0000 -1.0000
vn 1.0000 0.0000 0.0000
vn -0.0000 0.0000 1.0000
vn 0.0000 -1.0000 0.0000
vn 0.9350 -0.0000 0.3547
vn 0.9350 -0.0000 -0.3547
vn 0.9997 -0.0000 -0.0263
vn 0.9335 0.0000 0.3585
vn 0.9308 0.0000 -0.3656
vn 0.7071 -0.0000 0.7071
vn 0.7071 0.0000 -0.7071
vn 0.7303 0.0000 -0.6832
vn 0.6652 0.0000 0.7467
vn 0.0000 1.0000 0.0000
vn -0.9350 -0.0000 -0.3547
vn -0.9350 -0.0000 0.3547
vn -0.9990 -0.0000 -0.0443
vn -0.9175 0.0000 -0.3976
vn -0.9333 0.0000 0.3592
vn -0.7071 0.0000 -0.7071
vn -0.7071 0.0000 0.7071
vn -0.6863 0.0000 0.7273
vn -0.7366 0.0000 -0.6763
vn -0.3547 0.0000 0.9350
vn 0.3547 0.0000 0.9350
vn 0.0209 -0.0000 0.9998
vn -0.3658 0.0000 0.9307
vn 0.3649 0.0000 0.9311
vn 0.3547 0.0000 -0.9350
vn -0.3547 0.0000 -0.9350
vn -0.0125 -0.0000 -0.9999
vn 0.3891 0.0000 -0.9212
vn -0.4156 0.0000 -0.9095
vn -0.4580 0.7465 0.4826
vn -0.4294 0.7796 0.4558
vn -0.2521 0.9241 0.2873
vn 0.3676 0.9003 -0.2331
vn 0.2703 0.9471 -0.1732
vn 0.0894 0.9941 -0.0617
vn 0.3930 0.8828 -0.2575
vn 0.3931 0.8827 -0.2574
vn -0.4781 0.7212 0.5013
vn 0.2653 0.8340 -0.4838
vn -0.3537 0.9189 0.1747
vn -0.5275 0.8036 0.2756
vn -0.3538 0.9189 0.1747
vn 0.3867 0.8833 -0.2650
vn -0.3131 0.9376 0.1513
s 1
f 85/1/1 86/2/1 89/3/1 88/4/1
f 86/2/1 87/5/1 90/6/1 89/3/1
f 88/4/1 89/3/1 92/7/1 91/8/1
f 89/3/1 90/6/1 93/9/1 92/7/1
f 1/10/1 16/11/1 85/1/1 15/12/1
f 16/11/1 17/13/1 86/2/1 85/1/1
f 17/13/1 18/14/1 87/5/1 86/2/1
f 18/14/1 9/15/1 19/16/1 87/5/1
f 87/5/1 19/16/1 20/17/1 90/6/1
f 90/6/1 20/17/1 21/18/1 93/9/1
f 93/9/1 21/18/1 10/19/1 22/20/1
f 92/7/1 93/9/1 22/20/1 23/21/1
f 91/8/1 92/7/1 23/21/1 24/22/1
f 13/23/1 91/8/1 24/22/1 3/24/1
f 14/25/1 88/4/1 91/8/1 13/23/1
f 15/12/1 85/1/1 88/4/1 14/25/1
f 94/26/2 95/27/2 98/28/2 97/29/2
f 95/27/2 96/30/2 99/31/2 98/28/2
f 97/29/2 98/28/2 101/32/2 100/33/2
f 98/28/2 99/31/2 102/34/2 101/32/2
f 3/24/2 24/22/2 94/26/2 27/35/2
f 24/22/2 23/21/2 95/27/2 94/26/2
f 23/21/2 22/20/2 96/30/2 95/27/2
f 22/20/2 10/19/2 28/36/2 96/30/2
f 96/30/2 28/36/2 29/37/2 99/31/2
f 99/31/2 29/37/2 30/38/2 102/34/2
f 102/34/2 30/38/2 11/39/2 31/40/2
f 101/32/2 102/34/2 31/40/2 32/41/2
f 100/33/2 101/32/2 32/41/2 33/42/2
f 25/43/2 100/33/2 33/42/2 7/44/2
f 26/45/2 97/29/2 100/33/2 25/43/2
f 27/35/2 94/26/2 97/29/2 26/45/2
f 103/46/3 104/47/3 107/48/3 106/49/3
f 104/47/3 105/50/3 108/51/3 107/48/3
f 106/49/3 107/48/3 110/52/3 109/53/3
f 107/48/3 108/51/3 111/54/3 110/52/3
f 7/44/3 33/42/3 103/46/3 36/55/3
f 33/42/3 32/41/3 104/47/3 103/46/3
f 32/41/3 31/40/3 105/50/3 104/47/3
f 31/40/3 11/39/3 37/56/3 105/50/3
f 105/50/3 37/56/3 38/57/3 108/51/3
f 108/51/3 38/57/3 39/58/3 111/54/3
f 111/54/3 39/58/3 12/59/3 40/60/3
f 110/52/3 111/54/3 40/60/3 41/61/3
f 109/53/3 110/52/3 41/61/3 42/62/3
f 34/63/3 109/53/3 42/62/3 5/64/3
f 35/65/3 106/49/3 109/53/3 34/63/3
f 36/55/3 103/46/3 106/49/3 35/65/3
f 112/66/4 113/67/4 116/68/4 115/69/4
f 113/67/4 114/70/4 117/71/4 116/68/4
f 115/69/4 116/68/4 119/72/4 118/73/4
f 116/68/4 117/71/4 120/74/4 119/72/4
f 5/64/4 42/62/4 112/66/4 45/75/4
f 42/62/4 41/61/4 113/67/4 112/66/4
f 41/61/4 40/60/4 114/70/4 113/67/4
f 40/60/4 12/59/4 46/76/4 114/70/4
f 114/70/4 46/76/4 47/77/4 117/71/4
f 117/71/4 47/77/4 48/78/4 120/74/4
f 120/74/4 48/78/4 9/79/4 18/80/4
f 119/72/4 120/74/4 18/80/4 17/81/4
f 118/73/4 119/72/4 17/81/4 16/82/4
f 43/83/4 118/73/4 16/82/4 1/84/4
f 44/85/4 115/69/4 118/73/4 43/83/4
f 45/75/4 112/66/4 115/69/4 44/85/4
f 121/86/5 122/87/5 125/88/5 124/89/5
f 122/87/5 123/90/5 126/91/5 125/88/5
f 124/89/5 125/88/5 128/92/5 127/93/5
f 125/88/5 126/91/5 129/94/5 128/92/5
f 3/95/5 27/96/5 121/86/5 13/97/5
f 27/96/5 26/98/5 122/87/5 121/86/5
f 26/98/5 25/99/5 123/90/5 122/87/5
f 25/99/5 7/44/5 36/55/5 123/90/5
f 123/90/5 36/55/5 35/65/5 126/91/5
f 126/91/5 35/65/5 34/63/5 129/94/5
f 129/94/5 34/63/5 5/64/5 45/100/5
f 128/92/5 129/94/5 45/100/5 44/101/5
f 127/93/5 128/92/5 44/101/5 43/102/5
f 15/103/5 127/93/5 43/102/5 1/104/5
f 14/105/5 124/89/5 127/93/5 15/103/5
f 13/97/5 121/86/5 124/89/5 14/105/5
f 130/106/6 131/107/3 134/108/3 133/109/6
f 131/107/3 132/110/7 135/111/7 134/108/3
f 133/109/6 134/108/3 137/112/8 136/113/9
f 134/108/3 135/111/7 138/114/10 137/112/8
f 6/115/11 57/116/6 130/106/6 78/117/11
f 57/116/6 56/118/3 131/107/3 130/106/6
f 56/118/3 55/119/7 132/110/7 131/107/3
f 55/119/7 8/120/12 73/121/12 132/110/7
f 132/110/7 73/121/12 74/122/12 135/111/7
f 135/111/7 74/122/12 75/123/13 138/114/10
f 77/124/11 133/109/6 136/113/9 76/125/14
f 78/117/11 130/106/6 133/109/6 77/124/11
f 139/126/15 140/127/15 143/128/15 142/129/15
f 140/127/15 141/130/15 144/131/15 143/128/15
f 142/129/15 143/128/15 146/132/15 145/133/15
f 143/128/15 144/131/15 147/134/15 146/132/15
f 2/135/15 49/136/15 139/126/15 63/137/15
f 49/136/15 50/138/15 140/127/15 139/126/15
f 50/138/15 51/139/15 141/130/15 140/127/15
f 51/139/15 4/140/15 64/141/15 141/130/15
f 141/130/15 64/141/15 65/142/15 144/131/15
f 144/131/15 65/142/15 66/143/15 147/134/15
f 147/134/15 66/143/15 10/144/15 21/145/15
f 146/132/15 147/134/15 21/145/15 20/146/15
f 145/133/15 146/132/15 20/146/15 19/147/15
f 61/148/15 145/133/15 19/147/15 9/149/15
f 62/150/15 142/129/15 145/133/15 61/148/15
f 63/137/15 139/126/15 142/129/15 62/150/15
f 148/151/15 149/152/15 152/153/15 151/154/15
f 149/152/15 150/155/15 153/156/15 152/153/15
f 151/154/15 152/153/15 155/157/15 154/158/15
f 152/153/15 153/156/15 156/159/15 155/157/15
f 4/140/15 52/160/15 148/151/15 64/141/15
f 52/160/15 53/161/15 149/152/15 148/151/15
f 53/161/15 54/162/15 150/155/15 149/152/15
f 54/162/15 8/120/15 67/163/15 150/155/15
f 150/155/15 67/163/15 68/164/15 153/156/15
f 153/156/15 68/164/15 69/165/15 156/159/15
f 156/159/15 69/165/15 11/39/15 30/166/15
f 155/157/15 156/159/15 30/166/15 29/167/15
f 154/158/15 155/157/15 29/167/15 28/168/15
f 66/143/15 154/158/15 28/168/15 10/144/15
f 65/142/15 151/154/15 154/158/15 66/143/15
f 64/141/15 148/151/15 151/154/15 65/142/15
f 157/169/15 158/170/15 161/171/15 160/172/15
f 158/170/15 159/173/15 162/174/15 161/171/15
f 160/172/15 161/171/15 164/175/15 163/176/15
f 161/171/15 162/174/15 165/177/15 164/175/15
f 8/120/15 55/119/15 157/169/15 67/163/15
f 55/119/15 56/118/15 158/170/15 157/169/15
f 56/118/15 57/116/15 159/173/15 158/170/15
f 57/116/15 6/115/15 70/178/15 159/173/15
f 159/173/15 70/178/15 71/179/15 162/174/15
f 162/174/15 71/179/15 72/180/15 165/177/15
f 165/177/15 72/180/15 12/59/15 39/58/15
f 164/175/15 165/177/15 39/58/15 38/57/15
f 163/176/15 164/175/15 38/57/15 37/56/15
f 69/165/15 163/176/15 37/56/15 11/39/15
f 68/164/15 160/172/15 163/176/15 69/165/15
f 67/163/15 157/169/15 160/172/15 68/164/15
f 166/181/15 167/182/15 170/183/15 169/184/15
f 167/182/15 168/185/15 171/186/15 170/183/15
f 169/184/15 170/183/15 173/187/15 172/188/15
f 170/183/15 171/186/15 174/189/15 173/187/15
f 6/115/15 58/190/15 166/181/15 70/178/15
f 58/190/15 59/191/15 167/182/15 166/181/15
f 59/191/15 60/192/15 168/185/15 167/182/15
f 60/192/15 2/135/15 63/137/15 168/185/15
f 168/185/15 63/137/15 62/150/15 171/186/15
f 171/186/15 62/150/15 61/148/15 174/189/15
f 174/189/15 61/148/15 9/149/15 48/193/15
f 173/187/15 174/189/15 48/193/15 47/194/15
f 172/188/15 173/187/15 47/194/15 46/195/15
f 72/180/15 172/188/15 46/195/15 12/59/15
f 71/179/15 169/184/15 172/188/15 72/180/15
f 70/178/15 166/181/15 169/184/15 71/179/15
f 175/196/16 176/197/1 179/198/1 178/199/16
f 176/197/1 177/200/17 180/201/17 179/198/1
f 178/199/16 179/198/1 182/202/18 181/203/19
f 179/198/1 180/201/17 183/204/20 182/202/18
f 4/140/21 51/139/16 175/196/16 84/205/21
f 51/139/16 50/138/1 176/197/1 175/196/16
f 50/138/1 49/136/17 177/200/17 176/197/1
f 49/136/17 2/135/22 79/206/22 177/200/17
f 177/200/17 79/206/22 80/207/22 180/201/17
f 180/201/17 80/207/22 81/208/23 183/204/20
f 83/209/21 178/199/16 181/203/19 82/210/24
f 84/205/21 175/196/16 178/199/16 83/209/21
f 184/211/25 185/212/4 188/213/4 187/214/25
f 185/212/4 186/215/26 189/216/26 188/213/4
f 187/214/25 188/213/4 191/217/27 190/218/28
f 188/213/4 189/216/26 192/219/29 191/217/27
f 2/135/22 60/192/25 184/211/25 79/206/22
f 60/192/25 59/191/4 185/212/4 184/211/25
f 59/191/4 58/190/26 186/215/26 185/212/4
f 58/190/26 6/115/11 78/117/11 186/215/26
f 186/215/26 78/117/11 77/124/11 189/216/26
f 189/216/26 77/124/11 76/125/14 192/219/29
f 80/207/22 187/214/25 190/218/28 81/208/23
f 79/206/22 184/211/25 187/214/25 80/207/22
f 193/220/30 194/221/2 197/222/2 196/223/30
f 194/221/2 195/224/31 198/225/31 197/222/2
f 196/223/30 197/222/2 200/226/32 199/227/33
f 197/222/2 198/225/31 201/228/34 200/226/32
f 8/120/12 54/162/30 193/220/30 73/121/12
f 54/162/30 53/161/2 194/221/2 193/220/30
f 53/161/2 52/160/31 195/224/31 194/221/2
f 52/160/31 4/140/21 84/205/21 195/224/31
f 195/224/31 84/205/21 83/209/21 198/225/31
f 198/225/31 83/209/21 82/210/24 201/228/34
f 74/122/12 196/223/30 199/227/33 75/123/13
f 73/121/12 193/220/30 196/223/30 74/122/12
f 191/217/35 182/202/36 183/204/37
f 192/219/38 82/210/39 181/203/40
f 76/125/41 201/228/42 82/210/39 192/219/38
f 192/219/43 181/203/43 182/202/36 191/217/35
f 190/218/44 191/217/44 183/204/44 81/208/44
f 137/112/45 138/114/46 75/123/46 199/227/47
f 76/125/41 136/113/48 200/226/48 201/228/42
f 136/113/49 137/112/45 199/227/47 200/226/49
